# xmcd
#
# Track frame offsets: 
#        150
#        16141
#        33924
#        49865
#        62204
#        78081
#        93662
#        106246
#        121776
#        136284
#        150164
#        163621
#        177244
#        194446
#        210529
#        232202
#        248262
#        263184
#        272614
#        286664
#        300340
#        313346
#        327502
#
# Disc length: 4528 seconds
#
# Revision: 2
# Processed by: cddbd v1.5.2PL0 Copyright (c) Steve Scherf et al.
# Submitted via: ExactAudioCopy v1.1
#
DISCID=2f11ae17
DTITLE=Various Artist - Complete Motown Singles Volume 12A - Disc 69
DYEAR=2013
DGENRE=R&B
TTITLE0=Stevie Wonder - Superwoman (Where Were You When I Needed You) 
TTITLE0=(mono)
TTITLE1=Stevie Wonder - I Love Every Little Thing About You (mono)
TTITLE2=Eric and The Vikings - It's Too Much For Man To Take Too Long (m
TTITLE2=ono)
TTITLE3=Eric and The Vikings - Time Don't Wait (mono)
TTITLE4=Eric and The Vikings - It's Too Much For Man To Take Too Long (s
TTITLE4=tereo promo version)
TTITLE5=Howl The Good - Long Way From Home (mono)
TTITLE6=Howl The Good - Why Do You Cry (mono)
TTITLE7=Howl The Good - Long Way From Home (stereo promo version)
TTITLE8=Marvin Gaye - You're The Man (Part 1) (mono)
TTITLE9=Marvin Gaye - You're The Man (Part 2) (mono)
TTITLE10=Michael Jackson - I Wanna Be Where You Are (mono)
TTITLE11=Michael Jackson - We've Got A Good Thing Going (mono)
TTITLE12=Smokey Robinson and The Miracles - We've Come Too Far To End It
TTITLE12=Now (mono)
TTITLE13=The Undisputed Truth - Papa Was A Rollin' Stone (mono)
TTITLE14=The Undisputed Truth - Friendship Train (mono)
TTITLE15=The Undisputed Truth - Papa Was A Rollin' Stone (stereo promo
TTITLE15=version)
TTITLE16=Chris Holland and T-Bone - Get Me Some Help (mono)
TTITLE17=Chris Holland and T-Bone - If Time Could Stand Still (mono)
TTITLE18=Chris Holland and T-Bone - Get Me Some Help (stereo promo versi
TTITLE18=on)
TTITLE19=Martha Reeves and The Vandellas - Tear It On Down (mono)
TTITLE20=Martha Reeves and The Vandellas - I Want You Back (mono)
TTITLE21=Different Shades Of Brown - Label Me Love (mono)
TTITLE22=Different Shades Of Brown - Life's A Ball (While It Lasts) (m
TTITLE22=ono)
EXTD=
EXTT0=
EXTT1=
EXTT2=
EXTT3=
EXTT4=
EXTT5=
EXTT6=
EXTT7=
EXTT8=
EXTT9=
EXTT10=
EXTT11=
EXTT12=
EXTT13=
EXTT14=
EXTT15=
EXTT16=
EXTT17=
EXTT18=
EXTT19=
EXTT20=
EXTT21=
EXTT22=
PLAYORDER=
